<svg width="24" height="20" viewBox="0 0 24 20" fill="none" xmlns="http://www.w3.org/2000/svg">
<path d="M1.5 5.33301L15.5 5.33301M15.5 5.33301C15.5 7.26601 17.067 8.83301 19 8.83301C20.933 8.83301 22.5 7.266 22.5 5.33301C22.5 3.40001 20.933 1.83301 19 1.83301C17.067 1.83301 15.5 3.40001 15.5 5.33301ZM8.5 14.6663L22.5 14.6663M8.5 14.6663C8.5 16.5993 6.933 18.1663 5 18.1663C3.067 18.1663 1.5 16.5993 1.5 14.6663C1.5 12.7333 3.067 11.1663 5 11.1663C6.933 11.1663 8.5 12.7333 8.5 14.6663Z" stroke="#212529" stroke-width="2" stroke-linecap="round" stroke-linejoin="round"/>
</svg>
